<svg xmlns="http://www.w3.org/2000/svg" width="50" height="50" viewBox="0 0 50 50"><path fill="#3AA9D7" d="M0 0h50v50H0z"/><g fill="#FFF"><path d="M45.45 41.346a25.564 25.564 0 0 0-.79-3.242 15.31 15.31 0 0 0-1.287-2.914c-.538-.944-1.155-1.754-1.852-2.42-.698-.668-1.55-1.2-2.558-1.6-1.006-.396-2.115-.597-3.332-.597-.18 0-.597.214-1.255.642-.655.43-1.397.907-2.228 1.434-.825.527-1.9 1.005-3.228 1.436a12.83 12.83 0 0 1-3.99.646 12.83 12.83 0 0 1-3.99-.646c-1.324-.43-2.4-.905-3.226-1.437-.828-.525-1.57-1.005-2.226-1.435-.658-.428-1.076-.642-1.255-.642-1.216 0-2.326.198-3.332.598-1.005.398-1.857.932-2.553 1.6-.7.666-1.315 1.476-1.853 2.42a15.25 15.25 0 0 0-1.285 2.914c-.315.996-.58 2.076-.79 3.242-.208 1.164-.348 2.25-.417 3.256a46.45 46.45 0 0 0-.104 3.154c0 .784.087 1.244.243 2.244h41.59c.155-1 .24-1.46.24-2.243 0-1.055-.034-2.118-.104-3.124s-.21-2.123-.42-3.287z"/><path d="M24.938 32.484c3.167 0 5.87-1.12 8.113-3.36 2.242-2.242 3.362-4.945 3.362-8.113 0-3.167-1.12-5.87-3.36-8.11-2.243-2.242-4.946-3.363-8.114-3.363-3.167 0-5.872 1.12-8.112 3.362-2.242 2.24-3.362 4.944-3.362 8.11 0 3.168 1.12 5.872 3.362 8.114 2.24 2.24 4.945 3.36 8.112 3.36z"/></g></svg>